<svg width="48" height="54" viewBox="0 0 48 54" fill="none" xmlns="http://www.w3.org/2000/svg">
<rect x="0.5" y="0.5" width="43" height="43" rx="21.5" fill="white"/>
<path d="M25.75 20.5L30.4697 15.7803C30.9421 15.3079 31.75 15.6425 31.75 16.3107V27.6893C31.75 28.3575 30.9421 28.6921 30.4697 28.2197L25.75 23.5M14.5 28.75H23.5C24.7426 28.75 25.75 27.7426 25.75 26.5V17.5C25.75 16.2574 24.7426 15.25 23.5 15.25H14.5C13.2574 15.25 12.25 16.2574 12.25 17.5V26.5C12.25 27.7426 13.2574 28.75 14.5 28.75Z" stroke="#0F172A" stroke-width="1.5" stroke-linecap="round" stroke-linejoin="round"/>
<g filter="url(#filter0_d_597_1360)">
<rect x="32" y="34" width="12" height="12" rx="2" fill="white"/>
<path d="M40.6399 41.0167L38.4665 38.8434C38.2099 38.5867 37.7899 38.5867 37.5332 38.8434L35.3599 41.0167" stroke="black" stroke-miterlimit="10" stroke-linecap="round" stroke-linejoin="round"/>
</g>
<rect x="0.5" y="0.5" width="43" height="43" rx="21.5" stroke="black"/>
<defs>
<filter id="filter0_d_597_1360" x="28" y="34" width="20" height="20" filterUnits="userSpaceOnUse" color-interpolation-filters="sRGB">
<feFlood flood-opacity="0" result="BackgroundImageFix"/>
<feColorMatrix in="SourceAlpha" type="matrix" values="0 0 0 0 0 0 0 0 0 0 0 0 0 0 0 0 0 0 127 0" result="hardAlpha"/>
<feOffset dy="4"/>
<feGaussianBlur stdDeviation="2"/>
<feComposite in2="hardAlpha" operator="out"/>
<feColorMatrix type="matrix" values="0 0 0 0 0 0 0 0 0 0 0 0 0 0 0 0 0 0 0.25 0"/>
<feBlend mode="normal" in2="BackgroundImageFix" result="effect1_dropShadow_597_1360"/>
<feBlend mode="normal" in="SourceGraphic" in2="effect1_dropShadow_597_1360" result="shape"/>
</filter>
</defs>
</svg>
